<svg width="228" height="82" viewBox="0 0 228 82" fill="none" xmlns="http://www.w3.org/2000/svg">
<rect width="227.778" height="82" fill="white"/>
<path d="M25.7419 53.0793L22.8451 50.1827C22.0483 49.3859 21.7671 48.2328 22.1233 47.1642C22.4045 46.3298 22.7795 45.2424 23.2295 43.9957H13.3113C12.505 43.9957 11.7551 43.5644 11.352 42.8614C10.9489 42.1583 10.9583 41.2959 11.3707 40.6022L16.2923 32.3059C17.511 30.2529 19.714 28.9968 22.0952 28.9968H29.8104C30.0354 28.6218 30.2604 28.275 30.4854 27.9375C38.1631 16.6134 49.6 16.2384 56.4246 17.4945C57.5121 17.6914 58.3558 18.5445 58.562 19.6319C59.8182 26.4657 59.4338 37.893 48.1188 45.5705C47.7907 45.7955 47.4345 46.0205 47.0595 46.2455V53.9605C47.0595 56.3416 45.8033 58.5539 43.7503 59.7632L35.4539 64.6847C34.7601 65.0972 33.8977 65.1065 33.1946 64.7034C32.4915 64.3004 32.0603 63.5598 32.0603 62.7442V52.695C30.7385 53.1543 29.5854 53.5293 28.7136 53.8105C27.6636 54.148 26.5199 53.8574 25.7325 53.0793H25.7419ZM47.0595 32.7465C48.054 32.7465 49.0078 32.3515 49.711 31.6482C50.4142 30.945 50.8093 29.9913 50.8093 28.9968C50.8093 28.0023 50.4142 27.0486 49.711 26.3453C49.0078 25.6421 48.054 25.2471 47.0595 25.2471C46.065 25.2471 45.1112 25.6421 44.408 26.3453C43.7048 27.0486 43.3097 28.0023 43.3097 28.9968C43.3097 29.9913 43.7048 30.945 44.408 31.6482C45.1112 32.3515 46.065 32.7465 47.0595 32.7465Z" fill="#2D3748"/>
<path d="M87.0194 49.536H77.5874L76.0754 54H69.6314L78.7754 28.728H85.9034L95.0474 54H88.5314L87.0194 49.536ZM85.4354 44.784L82.3034 35.532L79.2074 44.784H85.4354ZM100.926 31.824C99.8464 31.824 98.9584 31.512 98.2624 30.888C97.5904 30.24 97.2544 29.448 97.2544 28.512C97.2544 27.552 97.5904 26.76 98.2624 26.136C98.9584 25.488 99.8464 25.164 100.926 25.164C101.982 25.164 102.846 25.488 103.518 26.136C104.214 26.76 104.562 27.552 104.562 28.512C104.562 29.448 104.214 30.24 103.518 30.888C102.846 31.512 101.982 31.824 100.926 31.824ZM103.986 33.912V54H97.8304V33.912H103.986ZM114.604 37.26C115.324 36.156 116.224 35.292 117.304 34.668C118.384 34.02 119.584 33.696 120.904 33.696V40.212H119.212C117.676 40.212 116.524 40.548 115.756 41.22C114.988 41.868 114.604 43.02 114.604 44.676V54H108.448V33.912H114.604V37.26ZM135.042 48.78V54H131.91C129.678 54 127.938 53.46 126.69 52.38C125.442 51.276 124.818 49.488 124.818 47.016V39.024H122.37V33.912H124.818V29.016H130.974V33.912H135.006V39.024H130.974V47.088C130.974 47.688 131.118 48.12 131.406 48.384C131.694 48.648 132.174 48.78 132.846 48.78H135.042ZM154.923 28.728V33.66H144.627V38.988H152.331V43.776H144.627V54H138.471V28.728H154.923ZM156.935 43.92C156.935 41.856 157.319 40.044 158.087 38.484C158.879 36.924 159.947 35.724 161.291 34.884C162.635 34.044 164.135 33.624 165.791 33.624C167.207 33.624 168.443 33.912 169.499 34.488C170.579 35.064 171.407 35.82 171.983 36.756V33.912H178.139V54H171.983V51.156C171.383 52.092 170.543 52.848 169.463 53.424C168.407 54 167.171 54.288 165.755 54.288C164.123 54.288 162.635 53.868 161.291 53.028C159.947 52.164 158.879 50.952 158.087 49.392C157.319 47.808 156.935 45.984 156.935 43.92ZM171.983 43.956C171.983 42.42 171.551 41.208 170.687 40.32C169.847 39.432 168.815 38.988 167.591 38.988C166.367 38.988 165.323 39.432 164.459 40.32C163.619 41.184 163.199 42.384 163.199 43.92C163.199 45.456 163.619 46.68 164.459 47.592C165.323 48.48 166.367 48.924 167.591 48.924C168.815 48.924 169.847 48.48 170.687 47.592C171.551 46.704 171.983 45.492 171.983 43.956ZM190.764 54.288C189.012 54.288 187.452 53.988 186.084 53.388C184.716 52.788 183.636 51.972 182.844 50.94C182.052 49.884 181.608 48.708 181.512 47.412H187.596C187.668 48.108 187.992 48.672 188.568 49.104C189.144 49.536 189.852 49.752 190.692 49.752C191.46 49.752 192.048 49.608 192.456 49.32C192.888 49.008 193.104 48.612 193.104 48.132C193.104 47.556 192.804 47.136 192.204 46.872C191.604 46.584 190.632 46.272 189.288 45.936C187.848 45.6 186.648 45.252 185.688 44.892C184.728 44.508 183.9 43.92 183.204 43.128C182.508 42.312 182.16 41.22 182.16 39.852C182.16 38.7 182.472 37.656 183.096 36.72C183.744 35.76 184.68 35.004 185.904 34.452C187.152 33.9 188.628 33.624 190.332 33.624C192.852 33.624 194.832 34.248 196.272 35.496C197.736 36.744 198.576 38.4 198.792 40.464H193.104C193.008 39.768 192.696 39.216 192.168 38.808C191.664 38.4 190.992 38.196 190.152 38.196C189.432 38.196 188.88 38.34 188.496 38.628C188.112 38.892 187.92 39.264 187.92 39.744C187.92 40.32 188.22 40.752 188.82 41.04C189.444 41.328 190.404 41.616 191.7 41.904C193.188 42.288 194.4 42.672 195.336 43.056C196.272 43.416 197.088 44.016 197.784 44.856C198.504 45.672 198.876 46.776 198.9 48.168C198.9 49.344 198.564 50.4 197.892 51.336C197.244 52.248 196.296 52.968 195.048 53.496C193.824 54.024 192.396 54.288 190.764 54.288ZM213.862 48.78V54H210.73C208.498 54 206.758 53.46 205.51 52.38C204.262 51.276 203.638 49.488 203.638 47.016V39.024H201.19V33.912H203.638V29.016H209.794V33.912H213.826V39.024H209.794V47.088C209.794 47.688 209.938 48.12 210.226 48.384C210.514 48.648 210.994 48.78 211.666 48.78H213.862Z" fill="#2D3748"/>
</svg>
